# xmcd CD database file
#
# Track frame offsets:
#	150
#	23100
#	56175
#
# Disc length: 1053 seconds
#
# Revision: 3
# Processed by: cddbd v1.5PL3 Copyright (c) Steve Scherf et al.
# Submitted via: CDex 1.51
#
DISCID=21041b03
DTITLE=聖飢魔II - 世界一のくちづけを
DYEAR=1993
DGENRE=Rock
TTITLE0=世界一のくちづけを
TTITLE1=モザイクのLOVE MAZE
TTITLE2=世界一のくちづけを (オリジナル・カラオケ)
EXTD=YEAR: 1993
EXTT0=
EXTT1=
EXTT2=
PLAYORDER=
